<?xml version="1.0" encoding="iso-8859-1"?>
<!-- Generator: Adobe Illustrator 19.0.0, SVG Export Plug-In . SVG Version: 6.00 Build 0)  -->
<svg xmlns="http://www.w3.org/2000/svg" xmlns:xlink="http://www.w3.org/1999/xlink" version="1.1" id="Capa_1" x="0px" y="0px" viewBox="0 0 512.001 512.001" style="enable-background:new 0 0 512.001 512.001;" xml:space="preserve" width="512px" height="512px">
<g>
	<g>
		<path d="M505.257,123.477l-91-60c-5.179-3.415-12.128-3.322-17.258,0.523l-94.712,71.034l-32.871-65.742    c-1.888-3.774-5.3-6.549-9.232-7.696l-210-61c-5.541-1.61-11.515,0.102-15.363,4.403c-3.848,4.301-4.887,10.428-2.673,15.757    l32.116,77.293L8.982,122.26c-4.897,2.145-8.281,6.733-8.886,12.044c-0.604,5.311,1.663,10.542,5.952,13.732l113.207,84.204    L61.354,493.758c-1.443,6.521,1.598,13.21,7.46,16.409c5.862,3.199,13.132,2.138,17.836-2.604l117.483-118.462l176.61-58.87    c5.362-1.787,9.392-6.503,10.141-12.37l18.077-144.615l91.643-22.685c5.783-1.432,10.17-6.149,11.179-12.021    C512.792,132.669,510.23,126.757,505.257,123.477z M44.675,139.379l31.102-13.621l22.103,53.195L44.675,139.379z M71.853,38.13    l158.42,46.017l-91.681,114.601L71.853,38.13z M101.851,449.633l37.716-170.354l38.748,93.252L101.851,449.633z M204.674,357.298    l-42.129-105.323l168.516,63.194L204.674,357.298z M160.634,219.218l92.433-115.541L345.5,288.543L160.634,219.218z     M367.26,264.98l-51.337-102.673l70.81-53.107L367.26,264.98z M412.947,141.354l4.943-39.546l42.258,27.862L412.947,141.354z" fill="#FFFFFF"/>
	</g>
</g>
<g>
</g>
<g>
</g>
<g>
</g>
<g>
</g>
<g>
</g>
<g>
</g>
<g>
</g>
<g>
</g>
<g>
</g>
<g>
</g>
<g>
</g>
<g>
</g>
<g>
</g>
<g>
</g>
<g>
</g>
</svg>
